<svg xmlns="http://www.w3.org/2000/svg" xmlns:xlink="http://www.w3.org/1999/xlink" width="109" height="109" viewBox="0 0 109 109">
  <defs>
    <clipPath id="clip-path">
      <rect id="Rectangle_63" data-name="Rectangle 63" width="109" height="109" transform="translate(0.298)"/>
    </clipPath>
  </defs>
  <g id="Fast_Turnaround" data-name="Fast Turnaround" transform="translate(-0.298)" clip-path="url(#clip-path)">
    <g id="fast-time" transform="translate(0.88 16.908)">
      <path id="Path_32" data-name="Path 32" d="M32.947,137.362h16.62a1.576,1.576,0,1,0,0-3.152H32.947a1.576,1.576,0,1,0,0,3.152Z" transform="translate(-24.78 -119.358)" fill="#fff"/>
      <path id="Path_33" data-name="Path 33" d="M84.653,185.317H78.087a1.576,1.576,0,1,0,0,3.152h6.565a1.576,1.576,0,1,0,0-3.152Z" transform="translate(-60.435 -159.727)" fill="#fff"/>
      <path id="Path_34" data-name="Path 34" d="M1.575,225.479H17.652a1.576,1.576,0,1,0,0-3.152H1.575a1.576,1.576,0,1,0,0,3.152Z" transform="translate(0.001 -188.96)" fill="#fff"/>
      <path id="Path_35" data-name="Path 35" d="M51.144,364.365a1.576,1.576,0,0,0-1.576-1.576H32.947a1.576,1.576,0,0,0,0,3.152h16.62a1.576,1.576,0,0,0,1.576-1.576Z" transform="translate(-24.78 -299.908)" fill="#fff"/>
      <path id="Path_36" data-name="Path 36" d="M84.653,311.683H78.087a1.576,1.576,0,1,0,0,3.152h6.565a1.576,1.576,0,1,0,0-3.152Z" transform="translate(-60.435 -259.54)" fill="#fff"/>
      <path id="Path_37" data-name="Path 37" d="M19.228,276.249a1.576,1.576,0,0,0-1.576-1.576H1.575a1.576,1.576,0,0,0,0,3.152H17.652A1.576,1.576,0,0,0,19.228,276.249Z" transform="translate(0.001 -230.307)" fill="#fff"/>
      <path id="Path_38" data-name="Path 38" d="M313.6,144.938a1.576,1.576,0,0,0,1.576-1.576v-2.4a1.576,1.576,0,0,0-3.152,0v2.406A1.576,1.576,0,0,0,313.6,144.938Z" transform="translate(-246.465 -123.444)" fill="#fff"/>
      <path id="Path_39" data-name="Path 39" d="M385.483,171.8a1.577,1.577,0,0,0-2.229,0l-1.7,1.7a1.576,1.576,0,1,0,2.229,2.229l1.7-1.7a1.577,1.577,0,0,0,0-2.229Z" transform="translate(-301.015 -148.686)" fill="#fff"/>
      <path id="Path_40" data-name="Path 40" d="M411.274,248.5a1.576,1.576,0,0,0,0,3.152h2.405a1.576,1.576,0,0,0,0-3.152Z" transform="translate(-323.612 -209.633)" fill="#fff"/>
      <path id="Path_41" data-name="Path 41" d="M383.782,318.024a1.576,1.576,0,0,0-2.229,2.229l1.7,1.7a1.576,1.576,0,1,0,2.229-2.229Z" transform="translate(-301.016 -264.184)" fill="#fff"/>
      <path id="Path_42" data-name="Path 42" d="M312.029,347.746v2.405a1.576,1.576,0,1,0,3.152,0v-2.405a1.576,1.576,0,0,0-3.152,0Z" transform="translate(-246.465 -286.781)" fill="#fff"/>
      <path id="Path_43" data-name="Path 43" d="M237.036,318.025l-1.7,1.7a1.576,1.576,0,0,0,2.229,2.229l1.7-1.7a1.576,1.576,0,1,0-2.229-2.229Z" transform="translate(-185.521 -264.185)" fill="#fff"/>
      <path id="Path_44" data-name="Path 44" d="M204.486,248.5a1.576,1.576,0,1,0,0,3.152h2.406a1.576,1.576,0,1,0,0-3.152Z" transform="translate(-160.274 -209.633)" fill="#fff"/>
      <path id="Path_45" data-name="Path 45" d="M239.263,173.5l-1.7-1.7a1.576,1.576,0,1,0-2.228,2.229l1.7,1.7a1.576,1.576,0,0,0,2.229-2.229Z" transform="translate(-185.52 -148.687)" fill="#fff"/>
      <path id="Path_46" data-name="Path 46" d="M322.079,200.172A1.576,1.576,0,0,0,320.5,198.6h-5.322V186.9a1.576,1.576,0,0,0-3.152,0v13.276a1.576,1.576,0,0,0,1.576,1.576h6.9a1.576,1.576,0,0,0,1.576-1.577Z" transform="translate(-246.464 -159.729)" fill="#fff"/>
      <path id="Path_47" data-name="Path 47" d="M231.3,137.628a1.576,1.576,0,0,0,1.478-1.668,31.394,31.394,0,1,0-.289,6.63,1.576,1.576,0,1,0-3.118-.468,28.289,28.289,0,1,1,.261-5.971,1.577,1.577,0,0,0,1.669,1.477Z" transform="translate(-134.279 -97.446)" fill="#fff"/>
      <path id="Path_48" data-name="Path 48" d="M149.035,63.529a40.427,40.427,0,0,0-15.973,3.3H105.256a1.576,1.576,0,0,0,0,3.152h21.877a40.4,40.4,0,0,0-8.082,6.851,1.576,1.576,0,1,0,2.336,2.116,37.2,37.2,0,1,1-3.7,4.812,1.576,1.576,0,1,0-2.648-1.71,40.432,40.432,0,0,0,12.1,55.911H105.257a1.576,1.576,0,0,0,0,3.152h27.784a40.441,40.441,0,1,0,15.994-77.584Z" transform="translate(-81.895 -63.529)" fill="#fff"/>
    </g>
  </g>
</svg>
