<?xml version="1.0" encoding="utf-8"?>
<!-- Generator: Adobe Illustrator 21.1.0, SVG Export Plug-In . SVG Version: 6.00 Build 0)  -->
<svg version="1.1" id="Layer_1" xmlns="http://www.w3.org/2000/svg" xmlns:xlink="http://www.w3.org/1999/xlink" x="0px" y="0px"
	 viewBox="0 0 16 16" style="enable-background:new 0 0 16 16;" xml:space="preserve">
<style type="text/css">
	.st0{fill:#FFFFFF;}
	.st1{fill:#243746;}
	.st2{fill:#B68150;}
</style>
<circle class="st0" cx="8" cy="8" r="8"/>
<g>
	<path class="st1" d="M14,4.2L14,4.2v0.5v0.2l-0.4-0.2H9.5V4.2h3.6v0H14z M12.2,8.2v0.7l-0.5-0.2v0H10v3.9H9.5V8.2l1.9,0h0.8H12.2z
		 M5.8,12.5c-0.6,0-1.2-0.1-1.7-0.3c-0.5-0.2-1-0.5-1.3-0.9c-0.4-0.4-0.6-0.8-0.8-1.3C1.7,9.5,1.6,9,1.6,8.4c0-0.6,0.1-1.1,0.3-1.7
		c0.2-0.5,0.5-1,0.9-1.3C3.2,5,3.7,4.7,4.2,4.5c0.5-0.2,1.1-0.3,1.6-0.3h0.9h0.5h0.4v0.7L7.2,4.6H5.8h0c-0.5,0-1,0.1-1.4,0.3
		C3.9,5.1,3.5,5.4,3.2,5.7C2.9,6.1,2.6,6.5,2.4,6.9C2.2,7.4,2.1,7.9,2.1,8.4c0,0.5,0.1,1,0.3,1.4c0.2,0.4,0.4,0.8,0.7,1.2
		c0.3,0.3,0.7,0.6,1.2,0.8c0.5,0.2,1,0.3,1.5,0.3l1.8,0V8.7H5.7v0L5.2,8.9V8.2h0.4h0.4H8v4.3L5.8,12.5z"/>
	<path class="st2" d="M10.7,7.1L11.2,6h-0.5l-0.3,0.7l-0.8-1c0,0,0,0,0-0.1c0,0,0,0,0-0.1c0,0,0-0.1,0-0.1c0,0,0-0.1,0-0.1
		c0,0,0-0.1,0.1-0.1c0,0,0.1,0,0.1-0.1c0,0,0.1,0,0.1,0c0.1,0,0.1,0,0.1,0c0.1,0,0.1,0,0.2,0.1l0.1,0.1l0.1-0.1c0,0,0,0,0.1-0.1
		c0,0,0-0.1,0-0.1L10.5,5l-0.1-0.1c-0.1,0-0.1-0.1-0.2-0.1c-0.1,0-0.2-0.1-0.3-0.1c-0.1,0-0.2,0-0.3,0c-0.1,0-0.2,0.1-0.2,0.1
		C9.2,5,9.2,5.1,9.2,5.1c0,0.1-0.1,0.2-0.1,0.3c0,0.1,0,0.2,0,0.3c0,0.1,0.1,0.1,0.1,0.2c0,0,0,0.1,0.1,0.1c0,0,0,0,0,0
		c0,0,0,0-0.1,0C9.2,6.1,9.1,6.2,9,6.3C9,6.4,8.9,6.4,8.8,6.5c0,0.1-0.1,0.2-0.1,0.3c0,0.1,0,0.2,0.1,0.3c0,0.1,0.1,0.2,0.2,0.3
		c0.1,0.1,0.2,0.1,0.3,0.2c0.1,0,0.2,0.1,0.4,0.1c0.2,0,0.4,0,0.5-0.1c0.1,0,0.2-0.1,0.2-0.1c0,0,0,0.1,0.1,0.1c0,0,0,0.1,0.1,0.1
		l0,0.1h0.6L10.7,7.1z M10.2,7.1c0,0-0.1,0.1-0.1,0.1c0,0-0.1,0-0.1,0.1c-0.1,0-0.1,0-0.2,0c-0.1,0-0.1,0-0.2,0
		c-0.1,0-0.1-0.1-0.2-0.1c0,0-0.1-0.1-0.1-0.1c0,0,0-0.1,0-0.2c0-0.1,0-0.1,0-0.2c0-0.1,0.1-0.1,0.1-0.1c0,0,0.1-0.1,0.2-0.1
		c0,0,0.1,0,0.1,0c0.1,0.1,0.2,0.2,0.3,0.4C10,6.9,10.1,7,10.2,7.1C10.2,7.1,10.2,7.1,10.2,7.1z"/>
</g>
</svg>
