<svg xmlns="http://www.w3.org/2000/svg" xmlns:xlink="http://www.w3.org/1999/xlink" width="512" height="512" viewBox="0 0 512 512">
  <defs>
    <clipPath id="clip-path">
      <rect id="Rectangle_63" data-name="Rectangle 63" width="512" height="512" transform="translate(4184 3197)"/>
    </clipPath>
  </defs>
  <g id="flexibility" transform="translate(-4184 -3197)" clip-path="url(#clip-path)">
    <g id="fast-time" transform="translate(4188.121 3212.641)">
      <path id="Path_32" data-name="Path 32" d="M38.751,148.969h77.825a7.379,7.379,0,1,0,0-14.759H38.751a7.379,7.379,0,0,0,0,14.759Z" transform="translate(-0.505 -1.138)" fill="#fff"/>
      <path id="Path_33" data-name="Path 33" d="M114.634,185.317H83.891a7.379,7.379,0,1,0,0,14.759h30.743a7.379,7.379,0,0,0,0-14.759Z" transform="translate(-1.232 -1.96)" fill="#fff"/>
      <path id="Path_34" data-name="Path 34" d="M7.379,237.086H82.66a7.379,7.379,0,0,0,0-14.759H7.379a7.379,7.379,0,0,0,0,14.759Z" transform="translate(0 -2.556)" fill="#fff"/>
      <path id="Path_35" data-name="Path 35" d="M123.955,370.168a7.379,7.379,0,0,0-7.379-7.379H38.751a7.379,7.379,0,0,0,0,14.759h77.825A7.379,7.379,0,0,0,123.955,370.168Z" transform="translate(-0.505 -4.817)" fill="#fff"/>
      <path id="Path_36" data-name="Path 36" d="M114.634,311.683H83.891a7.379,7.379,0,0,0,0,14.759h30.743a7.379,7.379,0,0,0,0-14.759Z" transform="translate(-1.232 -3.994)" fill="#fff"/>
      <path id="Path_37" data-name="Path 37" d="M90.039,282.052a7.379,7.379,0,0,0-7.379-7.379H7.379a7.379,7.379,0,0,0,0,14.759H82.66A7.379,7.379,0,0,0,90.039,282.052Z" transform="translate(0 -3.399)" fill="#fff"/>
      <path id="Path_38" data-name="Path 38" d="M319.408,165.4a7.378,7.378,0,0,0,7.379-7.379V146.761a7.379,7.379,0,1,0-14.758,0v11.264A7.378,7.378,0,0,0,319.408,165.4Z" transform="translate(-5.023 -1.221)" fill="#fff"/>
      <path id="Path_39" data-name="Path 39" d="M401.654,173.5a7.382,7.382,0,0,0-10.436,0l-7.965,7.965A7.38,7.38,0,0,0,393.689,191.9l7.965-7.965A7.382,7.382,0,0,0,401.654,173.5Z" transform="translate(-6.134 -1.735)" fill="#fff"/>
      <path id="Path_40" data-name="Path 40" d="M417.078,248.5a7.379,7.379,0,0,0,0,14.759h11.263a7.379,7.379,0,0,0,0-14.759Z" transform="translate(-6.595 -2.977)" fill="#fff"/>
      <path id="Path_41" data-name="Path 41" d="M393.689,319.724a7.379,7.379,0,0,0-10.436,10.436l7.965,7.965a7.38,7.38,0,0,0,10.436-10.436Z" transform="translate(-6.134 -4.089)" fill="#fff"/>
      <path id="Path_42" data-name="Path 42" d="M312.029,353.549v11.263a7.379,7.379,0,1,0,14.758,0V353.549a7.379,7.379,0,0,0-14.758,0Z" transform="translate(-5.023 -4.549)" fill="#fff"/>
      <path id="Path_43" data-name="Path 43" d="M245,319.724l-7.965,7.965a7.379,7.379,0,0,0,10.435,10.436l7.965-7.965A7.379,7.379,0,0,0,245,319.724Z" transform="translate(-3.78 -4.089)" fill="#fff"/>
      <path id="Path_44" data-name="Path 44" d="M210.29,248.5a7.379,7.379,0,0,0,0,14.759h11.264a7.379,7.379,0,0,0,0-14.759Z" transform="translate(-3.266 -2.977)" fill="#fff"/>
      <path id="Path_45" data-name="Path 45" d="M255.433,181.467l-7.965-7.965a7.379,7.379,0,0,0-10.435,10.436L245,191.9a7.379,7.379,0,1,0,10.435-10.436Z" transform="translate(-3.781 -1.735)" fill="#fff"/>
      <path id="Path_46" data-name="Path 46" d="M359.089,254.862a7.378,7.378,0,0,0-7.379-7.379H326.788V192.7a7.379,7.379,0,1,0-14.759,0v62.167a7.378,7.378,0,0,0,7.379,7.379h32.3A7.379,7.379,0,0,0,359.089,254.862Z" transform="translate(-5.022 -1.96)" fill="#fff"/>
      <path id="Path_47" data-name="Path 47" d="M457.045,252.375a7.379,7.379,0,0,0,6.919-7.812c-4.694-77.436-69.2-138.095-146.843-138.095C236,106.468,170,172.468,170,253.594s66,147.125,147.125,147.125a147.19,147.19,0,0,0,145.485-125.11,7.379,7.379,0,0,0-14.6-2.19,132.43,132.43,0,0,1-130.89,112.543c-72.987,0-132.367-59.38-132.367-132.367s59.38-132.368,132.367-132.368c69.858,0,127.888,54.568,132.111,124.231a7.384,7.384,0,0,0,7.813,6.917Z" transform="translate(-2.736 -0.691)" fill="#fff"/>
      <path id="Path_48" data-name="Path 48" d="M316.054,63.529a189.3,189.3,0,0,0-74.794,15.455H111.06a7.379,7.379,0,1,0,0,14.759H213.5a189.172,189.172,0,0,0-37.843,32.079,7.379,7.379,0,1,0,10.939,9.907,174.99,174.99,0,0,1,129.46-57.441c96.283,0,174.615,78.332,174.615,174.614S412.338,427.516,316.054,427.516,141.439,349.185,141.439,252.9a173.974,173.974,0,0,1,27.851-94.638,7.379,7.379,0,0,0-12.4-8.009,189.324,189.324,0,0,0,56.65,261.806H111.061a7.379,7.379,0,1,0,0,14.759h130.1a188.29,188.29,0,0,0,74.9,15.455c104.42,0,189.373-84.952,189.373-189.373S420.474,63.529,316.054,63.529Z" transform="translate(-1.669 0)" fill="#fff"/>
    </g>
  </g>
</svg>
