<?xml version="1.0" encoding="utf-8"?>
<!-- Generator: Adobe Illustrator 21.1.0, SVG Export Plug-In . SVG Version: 6.00 Build 0)  -->
<svg version="1.1" id="Layer_1" xmlns="http://www.w3.org/2000/svg" xmlns:xlink="http://www.w3.org/1999/xlink" x="0px" y="0px"
	 viewBox="0 0 85 82" style="enable-background:new 0 0 85 82;" xml:space="preserve">
<style type="text/css">
	.st0{fill:#FFFFFF;stroke:#FFFFFF;stroke-width:2;stroke-miterlimit:10;}
	.st1{fill:#FFFFFF;stroke:#FFFFFF;stroke-miterlimit:10;}
	.st2{fill:#FFFFFF;stroke:#FFFFFF;stroke-width:0.5;stroke-miterlimit:10;}
</style>
<g>
	<path class="st0" d="M79.3,9.7L79.3,9.7v2.7v1.3l-2.7-1.3H51.9V9.7h22v0H79.3z M68.7,34.1v4L66,36.8v0H54.9v23.4h-2.9V34.1l11.4,0
		H68H68.7z M29.7,60.3c-3.9,0-7.4-0.7-10.5-2c-3.1-1.3-5.8-3.1-8-5.3c-2.2-2.2-3.9-4.9-5.1-7.9c-1.2-3-1.8-6.3-1.8-9.8
		c0-3.6,0.7-6.9,2-10.1c1.4-3.1,3.2-5.8,5.5-8.1c2.3-2.3,5-4.1,8.1-5.4c3.1-1.3,6.4-2,9.9-2h5.6h2.8h2.7v4l-2.7-1.3h-8.4h0
		c-3.1,0-6,0.6-8.7,1.8c-2.7,1.2-5.1,2.8-7.1,4.9c-2.1,2.1-3.7,4.5-4.9,7.3c-1.2,2.8-1.8,5.7-1.8,8.8c0,3.1,0.5,6,1.6,8.7
		c1,2.7,2.6,5.1,4.5,7.1c2,2,4.3,3.6,7,4.8c2.7,1.2,5.8,1.7,9.1,1.7l10.8,0V36.9H29v0l-2.7,1.3v-4H29h2.7h11.4v26.2L29.7,60.3z"/>
	<g>
		<path class="st1" d="M5.8,72.7v2.6c-0.2,0.1-0.5,0.3-0.8,0.3c-0.3,0.1-0.6,0.1-1,0.1c-0.5,0-1-0.1-1.4-0.2c-0.4-0.2-0.8-0.4-1-0.7
			c-0.3-0.3-0.5-0.6-0.7-1c-0.2-0.4-0.2-0.8-0.2-1.3c0-0.5,0.1-0.9,0.3-1.4c0.2-0.4,0.4-0.8,0.7-1.1c0.3-0.3,0.7-0.5,1.1-0.7
			c0.4-0.2,0.8-0.3,1.3-0.3c0.3,0,0.6,0,0.9,0.1c0.3,0.1,0.6,0.2,0.8,0.3l-0.3,0.5C5.2,70,5,69.9,4.7,69.8c-0.3-0.1-0.5-0.1-0.8-0.1
			c-0.4,0-0.7,0.1-1,0.2c-0.3,0.1-0.6,0.3-0.9,0.6c-0.3,0.2-0.4,0.5-0.6,0.9c-0.1,0.3-0.2,0.7-0.2,1.1c0,0.4,0.1,0.7,0.2,1
			c0.1,0.3,0.3,0.6,0.5,0.9c0.2,0.2,0.5,0.4,0.9,0.6c0.3,0.1,0.7,0.2,1.1,0.2c0.2,0,0.4,0,0.6-0.1C4.8,75,5,75,5.2,74.9v-1.6H3.8
			v-0.5H5.8z"/>
		<path class="st1" d="M8.7,75.7v-6.5h0.6v5.9h3.4v0.6H8.7z"/>
		<path class="st1" d="M20.4,75.7c-0.1-0.3-0.3-0.6-0.4-1c-0.2-0.4-0.3-0.8-0.5-1.3H17c-0.2,0.5-0.3,0.9-0.5,1.3
			c-0.2,0.4-0.3,0.7-0.4,1h-0.6c0.1-0.2,0.2-0.5,0.4-0.9c0.2-0.4,0.3-0.8,0.5-1.2c0.2-0.4,0.4-0.9,0.5-1.3c0.2-0.5,0.4-0.9,0.5-1.3
			c0.2-0.4,0.3-0.8,0.5-1.2c0.1-0.4,0.3-0.6,0.4-0.9c0.1,0.2,0.2,0.5,0.4,0.9c0.2,0.4,0.3,0.7,0.5,1.2c0.2,0.4,0.4,0.9,0.5,1.3
			c0.2,0.5,0.4,0.9,0.5,1.3c0.2,0.4,0.3,0.8,0.5,1.2c0.1,0.4,0.3,0.6,0.4,0.9H20.4z M18.1,70.5c-0.1,0.3-0.3,0.6-0.4,1
			c-0.2,0.4-0.3,0.8-0.5,1.3h2.1c-0.2-0.5-0.4-0.9-0.5-1.3c-0.2-0.4-0.3-0.8-0.4-1c0,0,0-0.1,0-0.1c0-0.1,0-0.1,0-0.2
			c0,0,0,0.1,0,0.2C18.2,70.4,18.1,70.5,18.1,70.5z"/>
		<path class="st1" d="M27.6,69.5L27.4,70c-0.2-0.1-0.4-0.2-0.7-0.2c-0.3-0.1-0.5-0.1-0.7-0.1c-0.2,0-0.4,0-0.6,0.1
			c-0.2,0.1-0.3,0.1-0.4,0.2c-0.1,0.1-0.2,0.2-0.3,0.3c-0.1,0.1-0.1,0.3-0.1,0.4c0,0.2,0,0.3,0.1,0.4c0.1,0.1,0.2,0.2,0.4,0.3
			c0.2,0.1,0.3,0.2,0.5,0.2c0.2,0.1,0.4,0.2,0.6,0.2c0.2,0.1,0.4,0.2,0.6,0.3c0.2,0.1,0.4,0.2,0.5,0.4c0.2,0.1,0.3,0.3,0.4,0.5
			c0.1,0.2,0.1,0.4,0.1,0.7c0,0.3-0.1,0.5-0.2,0.8c-0.1,0.2-0.3,0.4-0.4,0.6c-0.2,0.2-0.4,0.3-0.7,0.4c-0.3,0.1-0.6,0.1-1,0.1
			c-0.3,0-0.5,0-0.7-0.1c-0.2,0-0.4-0.1-0.6-0.2c-0.2-0.1-0.3-0.1-0.4-0.2c-0.1-0.1-0.2-0.1-0.3-0.2l0.3-0.5
			c0.1,0.1,0.2,0.1,0.4,0.2c0.1,0.1,0.3,0.1,0.4,0.2c0.1,0,0.3,0.1,0.5,0.1c0.2,0,0.3,0,0.5,0c0.2,0,0.3,0,0.5-0.1
			c0.2,0,0.4-0.1,0.5-0.2c0.2-0.1,0.3-0.2,0.4-0.4c0.1-0.2,0.2-0.4,0.2-0.6c0-0.3-0.1-0.5-0.2-0.7c-0.2-0.2-0.4-0.3-0.6-0.4
			c-0.2-0.1-0.5-0.2-0.8-0.3c-0.3-0.1-0.6-0.2-0.8-0.3c-0.2-0.1-0.5-0.3-0.6-0.5c-0.2-0.2-0.2-0.4-0.2-0.8c0-0.2,0-0.4,0.1-0.6
			c0.1-0.2,0.2-0.4,0.4-0.5c0.2-0.2,0.4-0.3,0.6-0.4c0.2-0.1,0.5-0.1,0.8-0.1c0.2,0,0.3,0,0.5,0c0.2,0,0.3,0.1,0.5,0.1
			c0.2,0,0.3,0.1,0.4,0.1C27.4,69.5,27.5,69.5,27.6,69.5z"/>
		<path class="st1" d="M34.2,69.5L34,70c-0.2-0.1-0.4-0.2-0.7-0.2c-0.3-0.1-0.5-0.1-0.7-0.1c-0.2,0-0.4,0-0.6,0.1
			c-0.2,0.1-0.3,0.1-0.4,0.2c-0.1,0.1-0.2,0.2-0.3,0.3c-0.1,0.1-0.1,0.3-0.1,0.4c0,0.2,0,0.3,0.1,0.4c0.1,0.1,0.2,0.2,0.4,0.3
			c0.2,0.1,0.3,0.2,0.5,0.2c0.2,0.1,0.4,0.2,0.6,0.2c0.2,0.1,0.4,0.2,0.6,0.3c0.2,0.1,0.4,0.2,0.5,0.4c0.2,0.1,0.3,0.3,0.4,0.5
			c0.1,0.2,0.1,0.4,0.1,0.7c0,0.3-0.1,0.5-0.2,0.8c-0.1,0.2-0.3,0.4-0.4,0.6c-0.2,0.2-0.4,0.3-0.7,0.4c-0.3,0.1-0.6,0.1-1,0.1
			c-0.3,0-0.5,0-0.7-0.1c-0.2,0-0.4-0.1-0.6-0.2c-0.2-0.1-0.3-0.1-0.4-0.2c-0.1-0.1-0.2-0.1-0.3-0.2l0.3-0.5
			c0.1,0.1,0.2,0.1,0.4,0.2c0.1,0.1,0.3,0.1,0.4,0.2c0.1,0,0.3,0.1,0.5,0.1c0.2,0,0.3,0,0.5,0c0.2,0,0.3,0,0.5-0.1
			c0.2,0,0.4-0.1,0.5-0.2c0.2-0.1,0.3-0.2,0.4-0.4c0.1-0.2,0.2-0.4,0.2-0.6c0-0.3-0.1-0.5-0.2-0.7c-0.2-0.2-0.4-0.3-0.6-0.4
			c-0.2-0.1-0.5-0.2-0.8-0.3c-0.3-0.1-0.6-0.2-0.8-0.3c-0.2-0.1-0.5-0.3-0.6-0.5c-0.2-0.2-0.2-0.4-0.2-0.8c0-0.2,0-0.4,0.1-0.6
			c0.1-0.2,0.2-0.4,0.4-0.5c0.2-0.2,0.4-0.3,0.6-0.4c0.2-0.1,0.5-0.1,0.8-0.1c0.2,0,0.3,0,0.5,0c0.2,0,0.3,0.1,0.5,0.1
			c0.2,0,0.3,0.1,0.4,0.1C34,69.5,34.1,69.5,34.2,69.5z"/>
	</g>
	<path class="st1" d="M43.4,75.7h-0.6c0,0-0.1-0.1-0.2-0.2c-0.1-0.1-0.3-0.3-0.4-0.5c-0.2,0.2-0.4,0.4-0.8,0.6
		c-0.3,0.2-0.7,0.2-1.1,0.2c-0.3,0-0.6,0-0.8-0.1c-0.3-0.1-0.5-0.2-0.7-0.4c-0.2-0.2-0.3-0.4-0.4-0.6c-0.1-0.2-0.2-0.5-0.2-0.7
		c0-0.2,0-0.5,0.1-0.7c0.1-0.2,0.2-0.4,0.4-0.6c0.2-0.2,0.3-0.3,0.5-0.4c0.2-0.1,0.4-0.2,0.7-0.2c-0.1-0.2-0.3-0.3-0.4-0.5
		c-0.1-0.1-0.2-0.2-0.2-0.3c-0.1-0.2-0.2-0.3-0.2-0.5C39,70.6,39,70.4,39,70.2c0-0.2,0-0.4,0.1-0.6c0.1-0.2,0.2-0.3,0.3-0.4
		c0.1-0.1,0.3-0.2,0.5-0.3c0.2-0.1,0.4-0.1,0.6-0.1c0.3,0,0.5,0,0.7,0.1c0.2,0.1,0.4,0.2,0.5,0.3c0,0,0,0,0,0.1c0,0-0.1,0.1-0.1,0.1
		c0,0-0.1,0.1-0.1,0.1c0,0,0,0.1,0,0.1c-0.1-0.1-0.2-0.1-0.4-0.2c-0.1-0.1-0.3-0.1-0.4-0.1c-0.2,0-0.3,0-0.4,0
		c-0.1,0-0.3,0.1-0.4,0.2c-0.1,0.1-0.2,0.2-0.3,0.3c-0.1,0.1-0.1,0.3-0.1,0.4c0,0.1,0,0.2,0,0.3c0,0.1,0,0.2,0.1,0.2
		c0,0.1,0.1,0.1,0.1,0.2c0,0,0,0.1,0,0.1l2.3,3l0.8-2h0.5l-1,2.5L43.4,75.7z M40.2,72.4c-0.2,0-0.4,0-0.5,0.1
		c-0.2,0.1-0.3,0.2-0.5,0.3c-0.1,0.1-0.3,0.3-0.3,0.4c-0.1,0.2-0.1,0.4-0.1,0.6c0,0.2,0,0.4,0.1,0.6c0.1,0.2,0.2,0.3,0.4,0.4
		c0.1,0.1,0.3,0.2,0.5,0.3c0.2,0.1,0.4,0.1,0.6,0.1c0.2,0,0.3,0,0.5-0.1c0.2,0,0.3-0.1,0.4-0.1c0.1-0.1,0.3-0.1,0.4-0.2
		c0.1-0.1,0.2-0.2,0.3-0.3c-0.3-0.3-0.5-0.7-0.8-1C40.7,73.1,40.5,72.8,40.2,72.4z"/>
	<g>
		<path class="st1" d="M46.5,75.7v-6.5h3.7v0.6h-3.1v2.4h2.7v0.6h-2.7v2.9H46.5z"/>
		<path class="st1" d="M54.9,75.7c-0.3,0-0.6-0.1-0.9-0.2c-0.3-0.1-0.5-0.3-0.7-0.4c-0.2-0.2-0.4-0.4-0.5-0.7
			c-0.1-0.3-0.2-0.6-0.2-1v-4.3h0.6v4.2c0,0.3,0,0.5,0.1,0.7c0.1,0.2,0.2,0.4,0.4,0.5c0.2,0.1,0.3,0.3,0.5,0.3
			c0.2,0.1,0.4,0.1,0.7,0.1c0.2,0,0.5,0,0.7-0.1c0.2-0.1,0.4-0.2,0.5-0.3c0.2-0.1,0.3-0.3,0.4-0.5c0.1-0.2,0.1-0.4,0.1-0.7v-4.2h0.6
			v4.3c0,0.4-0.1,0.7-0.2,1c-0.1,0.3-0.3,0.5-0.5,0.7c-0.2,0.2-0.5,0.3-0.7,0.4C55.5,75.7,55.2,75.7,54.9,75.7z"/>
		<path class="st1" d="M63.3,69.5L63.1,70c-0.2-0.1-0.4-0.2-0.7-0.2c-0.3-0.1-0.5-0.1-0.7-0.1c-0.2,0-0.4,0-0.6,0.1
			c-0.2,0.1-0.3,0.1-0.4,0.2c-0.1,0.1-0.2,0.2-0.3,0.3c-0.1,0.1-0.1,0.3-0.1,0.4c0,0.2,0,0.3,0.1,0.4c0.1,0.1,0.2,0.2,0.4,0.3
			c0.2,0.1,0.3,0.2,0.5,0.2c0.2,0.1,0.4,0.2,0.6,0.2c0.2,0.1,0.4,0.2,0.6,0.3c0.2,0.1,0.4,0.2,0.5,0.4c0.2,0.1,0.3,0.3,0.4,0.5
			c0.1,0.2,0.1,0.4,0.1,0.7c0,0.3-0.1,0.5-0.2,0.8c-0.1,0.2-0.3,0.4-0.4,0.6c-0.2,0.2-0.4,0.3-0.7,0.4c-0.3,0.1-0.6,0.1-1,0.1
			c-0.3,0-0.5,0-0.7-0.1c-0.2,0-0.4-0.1-0.6-0.2c-0.2-0.1-0.3-0.1-0.4-0.2c-0.1-0.1-0.2-0.1-0.3-0.2l0.3-0.5
			c0.1,0.1,0.2,0.1,0.4,0.2c0.1,0.1,0.3,0.1,0.4,0.2c0.1,0,0.3,0.1,0.5,0.1c0.2,0,0.3,0,0.5,0c0.2,0,0.3,0,0.5-0.1
			c0.2,0,0.4-0.1,0.5-0.2c0.2-0.1,0.3-0.2,0.4-0.4c0.1-0.2,0.2-0.4,0.2-0.6c0-0.3-0.1-0.5-0.2-0.7c-0.2-0.2-0.4-0.3-0.6-0.4
			c-0.2-0.1-0.5-0.2-0.8-0.3c-0.3-0.1-0.6-0.2-0.8-0.3c-0.2-0.1-0.5-0.3-0.6-0.5c-0.2-0.2-0.2-0.4-0.2-0.8c0-0.2,0-0.4,0.1-0.6
			c0.1-0.2,0.2-0.4,0.4-0.5c0.2-0.2,0.4-0.3,0.6-0.4c0.2-0.1,0.5-0.1,0.8-0.1c0.2,0,0.3,0,0.5,0c0.2,0,0.3,0.1,0.5,0.1
			c0.2,0,0.3,0.1,0.4,0.1C63.2,69.5,63.3,69.5,63.3,69.5z"/>
		<path class="st1" d="M65.9,69.2h0.6v6.5h-0.6V69.2z"/>
		<path class="st1" d="M69.5,72.4c0-0.5,0.1-0.9,0.3-1.3c0.2-0.4,0.4-0.8,0.7-1.1c0.3-0.3,0.6-0.5,1.1-0.7c0.4-0.2,0.8-0.3,1.3-0.3
			s0.9,0.1,1.3,0.3c0.4,0.2,0.8,0.4,1.1,0.7c0.3,0.3,0.5,0.7,0.7,1.1c0.2,0.4,0.3,0.8,0.3,1.3s-0.1,0.9-0.3,1.3
			c-0.2,0.4-0.4,0.8-0.7,1.1c-0.3,0.3-0.7,0.5-1.1,0.7c-0.4,0.2-0.8,0.3-1.3,0.3s-0.9-0.1-1.3-0.3c-0.4-0.2-0.8-0.4-1.1-0.7
			c-0.3-0.3-0.5-0.6-0.7-1.1C69.6,73.3,69.5,72.9,69.5,72.4z M70.1,72.4c0,0.4,0.1,0.7,0.2,1.1c0.1,0.3,0.3,0.6,0.6,0.9
			c0.2,0.2,0.5,0.4,0.9,0.6c0.3,0.1,0.7,0.2,1,0.2c0.4,0,0.7-0.1,1-0.2c0.3-0.1,0.6-0.3,0.9-0.6s0.4-0.5,0.6-0.9
			c0.1-0.3,0.2-0.7,0.2-1.1c0-0.4-0.1-0.7-0.2-1.1c-0.1-0.3-0.3-0.6-0.6-0.9c-0.2-0.2-0.5-0.4-0.9-0.6c-0.3-0.1-0.7-0.2-1-0.2
			c-0.4,0-0.7,0.1-1,0.2c-0.3,0.1-0.6,0.3-0.9,0.6c-0.2,0.2-0.4,0.5-0.6,0.9C70.2,71.7,70.1,72.1,70.1,72.4z"/>
		<path class="st1" d="M84,69.2V76c-0.2-0.2-0.4-0.5-0.6-0.8c-0.3-0.3-0.5-0.6-0.8-0.9c-0.3-0.3-0.6-0.7-0.9-1
			c-0.3-0.3-0.6-0.7-0.9-1c-0.3-0.3-0.6-0.6-0.8-0.9c-0.2-0.3-0.4-0.5-0.6-0.7c0,0,0-0.1-0.1-0.1c0,0-0.1-0.1-0.1-0.1l0,0.3v5.1
			h-0.6v-6.8c0.2,0.2,0.4,0.5,0.6,0.8c0.3,0.3,0.5,0.6,0.8,0.9c0.3,0.3,0.6,0.7,0.9,1c0.3,0.3,0.6,0.7,0.9,1
			c0.3,0.3,0.6,0.6,0.8,0.9c0.3,0.3,0.5,0.5,0.6,0.7c0,0,0,0.1,0.1,0.1c0,0,0.1,0.1,0.1,0.1l0-0.3v-5H84z"/>
	</g>
	<path class="st2" d="M57.7,28.3l2.3-6.1h-2.6L56,26l-4.3-5.6c-0.1-0.1-0.1-0.3-0.2-0.4c0-0.1-0.1-0.2-0.1-0.4
		c0-0.1-0.1-0.3-0.1-0.5c0-0.2,0-0.4,0.1-0.6c0.1-0.2,0.2-0.3,0.3-0.4c0.2-0.1,0.3-0.2,0.5-0.3c0.2-0.1,0.4-0.1,0.7-0.1
		c0.3,0,0.6,0.1,0.8,0.2c0.3,0.1,0.6,0.2,0.8,0.4l0.6,0.3l0.5-0.5c0.1-0.1,0.1-0.1,0.3-0.4c0.2-0.2,0.2-0.3,0.2-0.4l0.3-0.7
		l-0.6-0.4c-0.4-0.2-0.8-0.5-1.3-0.7c-0.6-0.2-1.2-0.3-1.8-0.3c-0.5,0-1,0.1-1.5,0.3c-0.5,0.2-0.9,0.4-1.2,0.8
		c-0.4,0.3-0.7,0.7-0.9,1.2c-0.2,0.5-0.3,1-0.3,1.6c0,0.5,0.1,1,0.2,1.4c0.1,0.3,0.3,0.7,0.5,1c0.1,0.1,0.2,0.3,0.5,0.8
		c0.1,0.1,0.1,0.2,0.2,0.2c-0.1,0-0.2,0.1-0.3,0.2c-0.5,0.3-1,0.6-1.4,1c-0.4,0.4-0.8,0.9-1,1.4c-0.3,0.6-0.4,1.2-0.4,1.8
		c0,0.7,0.1,1.3,0.4,1.9c0.3,0.6,0.6,1.1,1.1,1.5c0.5,0.4,1,0.7,1.7,1c0.6,0.2,1.3,0.4,2.1,0.4c1,0,1.9-0.2,2.7-0.6
		c0.4-0.2,0.8-0.5,1.2-0.8c0.1,0.1,0.2,0.3,0.3,0.4c0.1,0.2,0.3,0.3,0.4,0.5l0.3,0.3h3L57.7,28.3z M54.7,28.5
		c-0.2,0.2-0.4,0.3-0.7,0.4c-0.3,0.1-0.5,0.2-0.8,0.3c-0.3,0.1-0.6,0.1-0.9,0.1c-0.4,0-0.8-0.1-1.1-0.2c-0.3-0.1-0.6-0.3-0.9-0.5
		c-0.2-0.2-0.4-0.4-0.6-0.7c-0.1-0.3-0.2-0.6-0.2-0.9c0-0.3,0.1-0.6,0.2-0.9c0.2-0.3,0.4-0.5,0.6-0.8c0.3-0.2,0.6-0.4,0.9-0.5
		c0.2-0.1,0.4-0.1,0.6-0.2c0.5,0.6,1,1.3,1.6,2C53.9,27.3,54.3,27.9,54.7,28.5C54.8,28.5,54.8,28.5,54.7,28.5z"/>
</g>
</svg>
