<svg xmlns="http://www.w3.org/2000/svg" width="432.872" height="512" viewBox="0 0 432.872 512">
  <g id="open-24-hours" transform="translate(-39.565)">
    <path id="Path_49" data-name="Path 49" d="M392.359,34.2l55.166,42.075a32.318,32.318,0,0,1,10.482,13.84,7.474,7.474,0,0,0,13.907-5.481,47.267,47.267,0,0,0-15.323-20.245l-7.527-5.741,7.3-9.575a25.225,25.225,0,0,0-40.114-30.594l-7.3,9.575-7.526-5.74a47.385,47.385,0,0,0-49.637-4.8l-1.843-1.942A50.184,50.184,0,0,0,313.7,0H201.065A50.182,50.182,0,0,0,164.82,15.57l-1.842,1.941a47.383,47.383,0,0,0-49.637,4.8l-7.526,5.74-7.3-9.576A25.225,25.225,0,1,0,58.4,49.073l7.3,9.575-7.526,5.74a47.39,47.39,0,0,0-8.931,66.345l9.518,12.479a12.457,12.457,0,0,0,17.46,2.351L125.6,107.906l10.784,14.138a206.043,206.043,0,0,0-23.326,314.3l-13.028,37.815a28.532,28.532,0,0,0,49.186,27.213l20.6-25.527a206.187,206.187,0,0,0,175.168.021l20.58,25.506a28.535,28.535,0,0,0,49.186-27.213l-13-37.743a207.611,207.611,0,0,0,37.573-50.089,7.474,7.474,0,0,0-13.171-7.069A191.364,191.364,0,0,1,257.385,480.434c-105.526,0-191.378-85.851-191.378-191.378S151.857,97.678,257.383,97.678,448.761,183.53,448.761,289.056a190.575,190.575,0,0,1-9.74,60.327,7.475,7.475,0,0,0,14.184,4.723,206.244,206.244,0,0,0-74.817-232.06l10.783-14.138,49.373,37.657A12.51,12.51,0,0,0,456,143.216l9.521-12.482a47.82,47.82,0,0,0,3.688-5.615,7.474,7.474,0,1,0-13.043-7.3,33.205,33.205,0,0,1-2.532,3.854l-8.008,10.5L338.958,50.81l8.008-10.5A32.423,32.423,0,0,1,392.359,34.2Zm35.78-6.656a10.276,10.276,0,0,1,16.343,12.463l-7.3,9.576L420.837,37.12Zm-27.53,451.484a13.587,13.587,0,0,1-23.42,12.957l-18.652-23.117a206.4,206.4,0,0,0,31.15-21.54ZM137.577,491.985a13.586,13.586,0,0,1-23.419-12.957L125.1,447.266a207.3,207.3,0,0,0,31.151,21.575ZM70.284,40.009A10.276,10.276,0,1,1,86.625,27.545l7.3,9.576L77.588,49.584Zm-1.146,92.159-8.008-10.5a32.424,32.424,0,0,1,6.111-45.394L122.406,34.2A32.419,32.419,0,0,1,167.8,40.311l8.007,10.5ZM323.121,52.942a12.372,12.372,0,0,0,4.79,8.242l49.373,37.657-11.323,14.845a204.984,204.984,0,0,0-101.1-30.808V64.9h25.956a7.474,7.474,0,0,0,0-14.948H223.952a7.474,7.474,0,0,0,0,14.948h25.957V82.88a204.974,204.974,0,0,0-101.1,30.808L137.481,98.843l49.372-37.657a12.457,12.457,0,0,0,2.351-17.46l-9.518-12.48a47.514,47.514,0,0,0-4.4-4.988l.377-.4a35.169,35.169,0,0,1,25.4-10.912H313.7a35.165,35.165,0,0,1,25.4,10.912l.378.4a47.612,47.612,0,0,0-4.4,4.987l-9.519,12.48a12.371,12.371,0,0,0-2.439,9.216Z" transform="translate(0)" fill="#fff"/>
    <path id="Path_50" data-name="Path 50" d="M134.483,174.446a7.474,7.474,0,0,0-10.537.831,175.37,175.37,0,0,0-42,113.778c0,96.734,78.7,175.433,175.433,175.433s175.433-78.7,175.433-175.433-78.7-175.433-175.433-175.433a173.626,173.626,0,0,0-107.077,36.552A7.474,7.474,0,0,0,159.445,162a158.81,158.81,0,0,1,97.937-33.432c88.491,0,160.485,71.993,160.485,160.485S345.874,449.54,257.383,449.54,96.9,377.547,96.9,289.056a160.415,160.415,0,0,1,38.415-104.071,7.475,7.475,0,0,0-.83-10.538Z" transform="translate(0 0)" fill="#fff"/>
    <path id="Path_51" data-name="Path 51" d="M257.382,164.113a7.474,7.474,0,0,0-7.474,7.474v82.548a35.816,35.816,0,0,0-27.445,27.445h-38.18a7.474,7.474,0,1,0,0,14.948h38.18a35.711,35.711,0,1,0,42.393-42.393V171.587A7.473,7.473,0,0,0,257.382,164.113Zm20.764,124.942a20.764,20.764,0,1,1-20.764-20.764A20.787,20.787,0,0,1,278.146,289.055Z" transform="translate(0.001 0.001)" fill="#fff"/>
    <path id="Path_52" data-name="Path 52" d="M211.886,234.581a7.476,7.476,0,0,0-9.86,3.809,13.016,13.016,0,0,1-23.813,0,7.474,7.474,0,1,0-13.669,6.051,27.964,27.964,0,0,0,51.15,0,7.474,7.474,0,0,0-3.808-9.86Z" transform="translate(0 0.001)" fill="#fff"/>
    <path id="Path_53" data-name="Path 53" d="M324.645,261.1a27.993,27.993,0,0,0,25.576-16.655,7.474,7.474,0,1,0-13.669-6.051,13.015,13.015,0,0,1-23.811,0,7.474,7.474,0,0,0-13.669,6.049A27.984,27.984,0,0,0,324.645,261.1Z" transform="translate(0.001 0.001)" fill="#fff"/>
    <path id="Path_54" data-name="Path 54" d="M178.983,316.261a7.474,7.474,0,0,0-13.668,6.05,100.662,100.662,0,0,0,184.138,0,7.474,7.474,0,1,0-13.669-6.051,85.714,85.714,0,0,1-156.8,0Z" transform="translate(0 0.001)" fill="#fff"/>
  </g>
</svg>
