<svg xmlns="http://www.w3.org/2000/svg" width="498.682" height="512" viewBox="0 0 498.682 512">
  <g id="paint" transform="translate(-36.413 -33.379)">
    <path id="Path_59" data-name="Path 59" d="M500.138,219.326l-44.9-44.9,1.479-6.212,49.1-14.525a8.78,8.78,0,0,0,0-16.841l-49.1-14.525-10.7-44.941a8.78,8.78,0,0,0-17.083,0L418.24,122.325l-11.656,3.449L336.453,55.652a68.635,68.635,0,0,0-97.083,0L75.687,219.326a68.729,68.729,0,0,0,0,97.091l8.2,8.2-9.639,34.209c-5.06,26.638-36,72.44-36.314,72.9a8.778,8.778,0,0,0,1.054,11.143l97.359,97.359a8.769,8.769,0,0,0,10.976,1.161l52.315-33.862a401.7,401.7,0,0,0,38.61-28.552l1.124,1.122a68.645,68.645,0,0,0,97.083,0L500.134,316.418a68.741,68.741,0,0,0,0-97.091Zm-72.047-81.6a8.778,8.778,0,0,0,6.054-6.388l3.328-13.99,3.337,13.99a8.775,8.775,0,0,0,6.054,6.388l25.51,7.547-25.51,7.547a8.778,8.778,0,0,0-6.054,6.388l-3.337,13.99-3.328-13.99a8.775,8.775,0,0,0-6.054-6.388l-25.51-7.547Zm-238,355.06-46.346,30L56.46,435.5c9.037-14.04,30.407-49.062,34.865-72.659l37.438-132.883a15.09,15.09,0,0,1,29.867,4.033L141.173,309.65a8.783,8.783,0,0,0,14.767,8.183L282,191.78a13.258,13.258,0,0,1,18.325,0,12.957,12.957,0,0,1,0,18.329,0,0,0,0,1,0,0l-92.743,92.747a8.779,8.779,0,0,0,12.416,12.416L338.36,196.9a12.962,12.962,0,0,1,18.334,18.329l-30.938,30.936a.121.121,0,0,1-.018.013L238.319,333.6a8.779,8.779,0,1,0,12.416,12.416l87.43-87.426A13.253,13.253,0,0,1,356.9,277.342l-25.209,25.209-66.926,66.921a8.779,8.779,0,0,0,12.416,12.416l4.7-4.7s.009,0,.011-.009l62.21-62.21a12.961,12.961,0,0,1,17.912,0,12.655,12.655,0,0,1,0,17.908L252.947,441.952a385.092,385.092,0,0,1-62.858,50.833ZM487.72,304,324.037,467.676a51.088,51.088,0,0,1-72.251,0l-.217-.217c4.691-4.265,9.314-8.6,13.792-13.083L374.433,345.3a30.207,30.207,0,0,0,0-42.739,28.733,28.733,0,0,0-11.132-6.785l6.012-6.012a30.855,30.855,0,0,0,0-43.582,30.493,30.493,0,0,0-11.575-7.161l11.369-11.369a30.521,30.521,0,1,0-43.165-43.161l-6.157,6.157a30.148,30.148,0,0,0-7.046-11.281c-11.516-11.529-31.623-11.546-43.157,0L165.177,283.769l10.7-46.377a9.977,9.977,0,0,0,.171-1,32.659,32.659,0,0,0-29.36-36.121c-16.944-1.6-32.01,9.749-35,25.672l-22.34,79.3L88.107,304a51.159,51.159,0,0,1,0-72.26L251.791,68.065a51.082,51.082,0,0,1,72.251,0l63.38,63.374-18.286,5.409a8.78,8.78,0,0,0,0,16.841l49.108,14.525,10.693,44.941a8.78,8.78,0,0,0,17.083,0l4.445-18.672,37.263,37.258A51.177,51.177,0,0,1,487.72,304Z" transform="translate(0 2.583)" fill="#fff"/>
    <path id="Path_60" data-name="Path 60" d="M63.764,68.5a8.778,8.778,0,0,0,8.781-8.781V42.16a8.781,8.781,0,0,0-17.561,0V59.721A8.778,8.778,0,0,0,63.764,68.5Z" transform="translate(22.195 0)" fill="#fff"/>
    <path id="Path_61" data-name="Path 61" d="M63.764,57.379a8.778,8.778,0,0,0-8.781,8.781V83.721a8.781,8.781,0,1,0,17.561,0V66.16A8.778,8.778,0,0,0,63.764,57.379Z" transform="translate(22.195 28.684)" fill="#fff"/>
    <path id="Path_62" data-name="Path 62" d="M47.764,66.94H65.325a8.781,8.781,0,1,0,0-17.561H47.764a8.781,8.781,0,0,0,0,17.561Z" transform="translate(3.072 19.122)" fill="#fff"/>
    <path id="Path_63" data-name="Path 63" d="M71.764,66.94H89.325a8.781,8.781,0,0,0,0-17.561H71.764a8.781,8.781,0,1,0,0,17.561Z" transform="translate(31.756 19.122)" fill="#fff"/>
    <path id="Path_64" data-name="Path 64" d="M245.715,229.379a30.732,30.732,0,1,0,30.732,30.732A30.769,30.769,0,0,0,245.715,229.379Zm0,43.9a13.171,13.171,0,1,1,13.171-13.171A13.184,13.184,0,0,1,245.715,273.282Z" transform="translate(213.418 234.249)" fill="#fff"/>
    <path id="Path_65" data-name="Path 65" d="M264.421,203.494a9.388,9.388,0,1,0,9.386,9.386A9.387,9.387,0,0,0,264.421,203.494Z" transform="translate(261.286 203.312)" fill="#fff"/>
  </g>
</svg>
