<svg xmlns="http://www.w3.org/2000/svg" width="510" height="511.242" viewBox="0 0 510 511.242">
  <g id="warranty" transform="translate(-0.604)">
    <g id="Group_20" data-name="Group 20" transform="translate(0.604)">
      <g id="Group_19" data-name="Group 19">
        <path id="Path_55" data-name="Path 55" d="M479.436,246.774a102.394,102.394,0,0,1-85.376-45.694l-6.844-10.266-6.844,10.266A102.394,102.394,0,0,1,295,246.774H263.83V378.683a107.171,107.171,0,0,0,38.34,81.962H132.217v-32.9H239.152V279.677H66.41v65.806H17.056V16.452H378.991V164.516h16.452V0H.6V357.115L120.586,477.1H327.456l59.76,34.145,69.508-39.714A107.167,107.167,0,0,0,510.6,378.683V246.774ZM115.765,449.014,28.687,361.935h87.078v87.078Zm-32.9-103.53V296.129H222.7V411.29H132.217V345.484Zm411.29,33.2a90.693,90.693,0,0,1-45.587,78.565l-61.348,35.058-61.348-35.058a90.693,90.693,0,0,1-45.587-78.565V263.226H295a118.806,118.806,0,0,0,92.22-43.745,118.806,118.806,0,0,0,92.22,43.745h14.716Z" transform="translate(-0.604)" fill="#fff"/>
      </g>
    </g>
    <g id="Group_22" data-name="Group 22" transform="translate(432.237 329.032)">
      <g id="Group_21" data-name="Group 21">
        <path id="Path_56" data-name="Path 56" d="M449.4,320v49.651a57.714,57.714,0,0,1-29.012,50l8.16,14.28a74.188,74.188,0,0,0,37.3-64.276V320Z" transform="translate(-420.388 -320)" fill="#fff"/>
      </g>
    </g>
    <g id="Group_24" data-name="Group 24" transform="translate(49.959 32.903)">
      <g id="Group_23" data-name="Group 23">
        <path id="Path_57" data-name="Path 57" d="M48.6,32V81.355H344.733V32ZM328.281,64.9H65.056V48.452H328.281Z" transform="translate(-48.604 -32)" fill="#fff"/>
      </g>
    </g>
    <g id="Group_26" data-name="Group 26" transform="translate(307.369 282.088)">
      <g id="Group_25" data-name="Group 25">
        <path id="Path_58" data-name="Path 58" d="M447.013,274.344,337.667,383.69,310.579,356.6l-11.631,11.631,38.719,38.719L458.644,285.975Z" transform="translate(-298.948 -274.344)" fill="#fff"/>
      </g>
    </g>
    <g id="Group_28" data-name="Group 28" transform="translate(99.314 312.581)">
      <g id="Group_27" data-name="Group 27">
        <rect id="Rectangle_49" data-name="Rectangle 49" width="106.935" height="16.452" fill="#fff"/>
      </g>
    </g>
    <g id="Group_30" data-name="Group 30" transform="translate(148.669 345.484)">
      <g id="Group_29" data-name="Group 29">
        <rect id="Rectangle_50" data-name="Rectangle 50" width="57.581" height="16.452" fill="#fff"/>
      </g>
    </g>
    <g id="Group_32" data-name="Group 32" transform="translate(148.669 378.387)">
      <g id="Group_31" data-name="Group 31">
        <rect id="Rectangle_51" data-name="Rectangle 51" width="57.581" height="16.452" fill="#fff"/>
      </g>
    </g>
    <g id="Group_34" data-name="Group 34" transform="translate(49.959 115.161)">
      <g id="Group_33" data-name="Group 33">
        <rect id="Rectangle_52" data-name="Rectangle 52" width="263.226" height="16.452" fill="#fff"/>
      </g>
    </g>
    <g id="Group_36" data-name="Group 36" transform="translate(49.959 148.065)">
      <g id="Group_35" data-name="Group 35">
        <rect id="Rectangle_53" data-name="Rectangle 53" width="263.226" height="16.452" fill="#fff"/>
      </g>
    </g>
    <g id="Group_38" data-name="Group 38" transform="translate(49.959 180.968)">
      <g id="Group_37" data-name="Group 37">
        <rect id="Rectangle_54" data-name="Rectangle 54" width="263.226" height="16.452" fill="#fff"/>
      </g>
    </g>
    <g id="Group_40" data-name="Group 40" transform="translate(49.959 213.871)">
      <g id="Group_39" data-name="Group 39">
        <rect id="Rectangle_55" data-name="Rectangle 55" width="156.29" height="16.452" fill="#fff"/>
      </g>
    </g>
    <g id="Group_42" data-name="Group 42" transform="translate(49.959 246.774)">
      <g id="Group_41" data-name="Group 41">
        <rect id="Rectangle_56" data-name="Rectangle 56" width="156.29" height="16.452" fill="#fff"/>
      </g>
    </g>
    <g id="Group_44" data-name="Group 44" transform="translate(329.636 115.161)">
      <g id="Group_43" data-name="Group 43">
        <rect id="Rectangle_57" data-name="Rectangle 57" width="16.452" height="16.452" fill="#fff"/>
      </g>
    </g>
    <g id="Group_46" data-name="Group 46" transform="translate(329.636 148.065)">
      <g id="Group_45" data-name="Group 45">
        <rect id="Rectangle_58" data-name="Rectangle 58" width="16.452" height="16.452" fill="#fff"/>
      </g>
    </g>
    <g id="Group_48" data-name="Group 48" transform="translate(329.636 180.968)">
      <g id="Group_47" data-name="Group 47">
        <rect id="Rectangle_59" data-name="Rectangle 59" width="16.452" height="16.452" fill="#fff"/>
      </g>
    </g>
    <g id="Group_50" data-name="Group 50" transform="translate(222.701 213.871)">
      <g id="Group_49" data-name="Group 49">
        <rect id="Rectangle_60" data-name="Rectangle 60" width="16.452" height="16.452" fill="#fff"/>
      </g>
    </g>
    <g id="Group_52" data-name="Group 52" transform="translate(222.701 246.774)">
      <g id="Group_51" data-name="Group 51">
        <rect id="Rectangle_61" data-name="Rectangle 61" width="16.452" height="16.452" fill="#fff"/>
      </g>
    </g>
  </g>
</svg>
