<svg id="Exquisite_Craftsmanship" data-name="Exquisite Craftsmanship" xmlns="http://www.w3.org/2000/svg" width="93.501" height="96" viewBox="0 0 93.501 96">
  <path id="Path_59" data-name="Path 59" d="M122.991,69.955l-8.383-8.408.276-1.163,9.167-2.72a1.645,1.645,0,0,0,0-3.154l-9.167-2.72-2-8.415a1.638,1.638,0,0,0-3.189,0l-2,8.416-2.176.646L92.431,39.306a12.787,12.787,0,0,0-18.125,0L43.747,69.955a12.9,12.9,0,0,0,0,18.181l1.531,1.535-1.8,6.406c-.945,4.988-6.721,13.565-6.78,13.651a1.647,1.647,0,0,0,.2,2.087l18.177,18.231a1.633,1.633,0,0,0,2.049.217l9.767-6.341a75.009,75.009,0,0,0,7.208-5.346l.21.21a12.789,12.789,0,0,0,18.125,0l30.558-30.65a12.9,12.9,0,0,0,0-18.181ZM109.54,54.675a1.642,1.642,0,0,0,1.13-1.2l.621-2.62.623,2.62a1.641,1.641,0,0,0,1.13,1.2l4.763,1.413L113.045,57.5a1.642,1.642,0,0,0-1.13,1.2l-.623,2.62-.621-2.62a1.641,1.641,0,0,0-1.13-1.2l-4.763-1.413ZM65.106,121.161l-8.653,5.618-16.3-16.345c1.687-2.629,5.677-9.187,6.509-13.606l6.99-24.883a2.817,2.817,0,0,1,5.576.755L55.973,86.868A1.64,1.64,0,0,0,58.73,88.4L82.265,64.8a2.47,2.47,0,0,1,3.421,0,2.431,2.431,0,0,1,0,3.432h0L68.372,85.6a1.642,1.642,0,0,0,2.318,2.325l22.1-22.166a2.424,2.424,0,1,1,3.423,3.432l-5.776,5.793,0,0L74.11,91.353a1.642,1.642,0,0,0,2.318,2.325L92.751,77.307a2.478,2.478,0,0,1,3.5,3.511l-4.706,4.721L79.047,98.07a1.642,1.642,0,1,0,2.318,2.325l.877-.88a0,0,0,0,0,0,0L93.859,87.864a2.415,2.415,0,0,1,3.344,0,2.375,2.375,0,0,1,0,3.353L76.841,111.643a71.937,71.937,0,0,1-11.735,9.519ZM120.672,85.81,90.113,116.459a9.518,9.518,0,0,1-13.489,0l-.041-.041c.876-.8,1.739-1.61,2.575-2.45L99.522,93.544a5.668,5.668,0,0,0,0-8,5.362,5.362,0,0,0-2.078-1.271l1.122-1.126a5.79,5.79,0,0,0,0-8.161,5.69,5.69,0,0,0-2.161-1.341l2.123-2.129a5.707,5.707,0,1,0-8.059-8.082L89.32,64.585A5.648,5.648,0,0,0,88,62.472a5.818,5.818,0,0,0-8.057,0L60.455,82.022l2-8.684a1.873,1.873,0,0,0,.032-.187A6.111,6.111,0,0,0,57,66.387a6.023,6.023,0,0,0-6.534,4.807L46.3,86.043l-.232-.233a9.6,9.6,0,0,1,0-13.531L76.625,41.63a9.517,9.517,0,0,1,13.489,0L101.947,53.5,98.533,54.51a1.645,1.645,0,0,0,0,3.154l9.168,2.72,2,8.415a1.638,1.638,0,0,0,3.189,0l.83-3.5,6.957,6.977A9.6,9.6,0,0,1,120.672,85.81Z" transform="translate(-36.415 -34.527)" fill="#fff"/>
  <path id="Path_60" data-name="Path 60" d="M56.859,40.879A1.875,1.875,0,0,0,58.734,39v-3.75a1.875,1.875,0,1,0-3.75,0V39a1.875,1.875,0,0,0,1.875,1.875Z" transform="translate(-46.278 -33.379)" fill="#fff"/>
  <path id="Path_61" data-name="Path 61" d="M56.858,57.379a1.875,1.875,0,0,0-1.875,1.875V63a1.875,1.875,0,1,0,3.75,0v-3.75a1.875,1.875,0,0,0-1.875-1.875Z" transform="translate(-46.278 -46.128)" fill="#fff"/>
  <path id="Path_62" data-name="Path 62" d="M40.858,53.129h3.75a1.875,1.875,0,1,0,0-3.75h-3.75a1.875,1.875,0,1,0,0,3.75Z" transform="translate(-37.779 -41.878)" fill="#fff"/>
  <path id="Path_63" data-name="Path 63" d="M64.858,53.129h3.75a1.875,1.875,0,1,0,0-3.75h-3.75a1.875,1.875,0,1,0,0,3.75Z" transform="translate(-50.527 -41.878)" fill="#fff"/>
  <path id="Path_64" data-name="Path 64" d="M221.546,229.379a6.563,6.563,0,1,0,6.563,6.563A6.563,6.563,0,0,0,221.546,229.379Zm0,9.375a2.813,2.813,0,1,1,2.813-2.813,2.813,2.813,0,0,1-2.813,2.813Z" transform="translate(-144.267 -150.839)" fill="#fff"/>
  <path id="Path_65" data-name="Path 65" d="M257.036,203.494a2,2,0,1,0,2,2,2.005,2.005,0,0,0-2-2Z" transform="translate(-165.54 -133.848)" fill="#fff"/>
</svg>
