<svg id="Flexible_Timing" data-name="Flexible Timing" xmlns="http://www.w3.org/2000/svg" width="84.545" height="100" viewBox="0 0 84.545 100">
  <path id="Path_49" data-name="Path 49" d="M108.469,6.68,119.244,14.9a6.312,6.312,0,0,1,2.047,2.7,1.46,1.46,0,1,0,2.716-1.071,9.232,9.232,0,0,0-2.993-3.954l-1.47-1.121,1.426-1.87a4.927,4.927,0,1,0-7.835-5.975l-1.426,1.87-1.47-1.121a9.255,9.255,0,0,0-9.695-.938l-.36-.379A9.8,9.8,0,0,0,93.106,0h-22a9.8,9.8,0,0,0-7.079,3.041l-.36.379a9.254,9.254,0,0,0-9.695.937L52.5,5.479l-1.426-1.87a4.927,4.927,0,1,0-7.835,5.976l1.426,1.87L43.2,12.576a9.256,9.256,0,0,0-1.744,12.958l1.859,2.437a2.433,2.433,0,0,0,3.41.459l9.644-7.355,2.106,2.761a40.243,40.243,0,0,0-4.556,61.387l-2.545,7.386a5.573,5.573,0,0,0,9.607,5.315L65,92.938a40.271,40.271,0,0,0,34.212,0l4.02,4.982a5.573,5.573,0,0,0,9.607-5.315L110.3,85.237a40.549,40.549,0,0,0,7.338-9.783,1.46,1.46,0,1,0-2.572-1.381,37.192,37.192,0,1,1,2.513-5.835,1.46,1.46,0,1,0,2.77.922A40.282,40.282,0,0,0,105.74,23.837l2.106-2.761,9.643,7.355a2.443,2.443,0,0,0,3.409-.459l1.86-2.438a9.337,9.337,0,0,0,.72-1.1,1.46,1.46,0,1,0-2.548-1.426,6.484,6.484,0,0,1-.494.753l-1.564,2.051L98.039,9.924,99.6,7.873a6.333,6.333,0,0,1,8.866-1.193Zm6.988-1.3a2.007,2.007,0,1,1,3.192,2.434l-1.426,1.87L114.031,7.25ZM110.08,93.56a2.654,2.654,0,0,1-4.574,2.531l-3.643-4.515a40.313,40.313,0,0,0,6.084-4.207ZM58.707,96.091a2.654,2.654,0,0,1-4.574-2.531l2.137-6.2a40.487,40.487,0,0,0,6.084,4.214ZM45.564,7.814A2.007,2.007,0,1,1,48.756,5.38l1.426,1.87L46.991,9.684Zm-.224,18-1.564-2.051A6.333,6.333,0,0,1,44.97,14.9L55.744,6.68A6.332,6.332,0,0,1,64.61,7.873l1.564,2.051ZM94.946,10.34a2.416,2.416,0,0,0,.936,1.61l9.643,7.355-2.212,2.9a40.036,40.036,0,0,0-19.746-6.017V12.676h5.07a1.46,1.46,0,1,0,0-2.92H75.577a1.46,1.46,0,1,0,0,2.92h5.07v3.512A40.034,40.034,0,0,0,60.9,22.2l-2.212-2.9,9.643-7.355a2.433,2.433,0,0,0,.459-3.41L66.931,6.1a9.279,9.279,0,0,0-.859-.974l.074-.078a6.869,6.869,0,0,1,4.961-2.131h22A6.868,6.868,0,0,1,98.067,5.05l.074.078a9.3,9.3,0,0,0-.859.974L95.422,8.54a2.416,2.416,0,0,0-.476,1.8Z" transform="translate(-39.564 0)" fill="#fff"/>
  <path id="Path_50" data-name="Path 50" d="M91.983,126.611a1.326,1.326,0,0,0-2.013.177,40.166,40.166,0,0,0-8.024,24.3c0,20.659,15.035,37.465,33.516,37.465s33.516-16.807,33.516-37.465-15.035-37.465-33.516-37.465a30.994,30.994,0,0,0-20.457,7.806,1.725,1.725,0,0,0-.256,2.239,1.33,1.33,0,0,0,2,.286,28.349,28.349,0,0,1,18.711-7.14c16.906,0,30.66,15.375,30.66,34.273s-13.754,34.274-30.66,34.274S84.8,169.985,84.8,151.087a36.741,36.741,0,0,1,7.339-22.225,1.73,1.73,0,0,0-.159-2.25Z" transform="translate(-72.895 -98.699)" fill="#fff"/>
  <path id="Path_51" data-name="Path 51" d="M194.016,164.113a1.6,1.6,0,0,0-1.6,1.6v17.629a7.649,7.649,0,0,0-5.861,5.861h-8.154a1.6,1.6,0,0,0,0,3.192h8.154a7.626,7.626,0,1,0,9.053-9.053V165.709a1.6,1.6,0,0,0-1.6-1.6Zm4.434,26.683a4.434,4.434,0,1,1-4.434-4.434A4.434,4.434,0,0,1,198.451,190.8Z" transform="translate(-150.923 -133.429)" fill="#fff"/>
  <path id="Path_52" data-name="Path 52" d="M174.15,234.076a1.6,1.6,0,0,0-2.106.813,2.78,2.78,0,0,1-5.086,0,1.6,1.6,0,1,0-2.919,1.292,5.972,5.972,0,0,0,10.924,0A1.6,1.6,0,0,0,174.15,234.076Z" transform="translate(-139.93 -188.487)" fill="#fff"/>
  <path id="Path_53" data-name="Path 53" d="M304.029,239.742a5.978,5.978,0,0,0,5.462-3.557,1.6,1.6,0,1,0-2.919-1.292,2.779,2.779,0,0,1-5.085,0,1.6,1.6,0,1,0-2.919,1.292A5.976,5.976,0,0,0,304.029,239.742Z" transform="translate(-248.522 -188.49)" fill="#fff"/>
  <path id="Path_54" data-name="Path 54" d="M167.729,312.76a1.6,1.6,0,1,0-2.919,1.292,21.5,21.5,0,0,0,39.325,0,1.6,1.6,0,1,0-2.919-1.292,18.305,18.305,0,0,1-33.486,0Z" transform="translate(-141.949 -251.817)" fill="#fff"/>
</svg>
