<svg id="Warranty" xmlns="http://www.w3.org/2000/svg" width="99.756" height="100" viewBox="0 0 99.756 100">
  <g id="Group_20" data-name="Group 20" transform="translate(0)">
    <g id="Group_19" data-name="Group 19" transform="translate(0)">
      <path id="Path_55" data-name="Path 55" d="M94.261,48.269a20.028,20.028,0,0,1-16.7-8.938l-1.339-2.008-1.339,2.008a20.028,20.028,0,0,1-16.7,8.938h-6.1v25.8a20.963,20.963,0,0,0,7.5,16.032H26.344V83.667H47.261V54.705H13.472V67.577H3.819V3.218H74.614V32.179h3.218V0H.6V69.852L24.069,93.321H64.533L76.222,100l13.6-7.768a20.962,20.962,0,0,0,10.538-18.161v-25.8ZM23.126,87.828,6.094,70.795H23.126V87.827ZM16.691,67.577V57.923H44.043V80.449h-17.7V67.577ZM97.14,74.071a17.74,17.74,0,0,1-8.917,15.367l-12,6.857-12-6.857a17.74,17.74,0,0,1-8.917-15.367V51.487h2.878a23.239,23.239,0,0,0,18.038-8.557,23.239,23.239,0,0,0,18.038,8.557H97.14Z" transform="translate(-0.6)" fill="#fff"/>
    </g>
  </g>
  <g id="Group_22" data-name="Group 22" transform="translate(83.021 61.087)">
    <g id="Group_21" data-name="Group 21">
      <path id="Path_56" data-name="Path 56" d="M426.584,320v10.6a12.325,12.325,0,0,1-6.2,10.678l1.743,3.05A15.844,15.844,0,0,0,430.1,330.6V320Z" transform="translate(-420.388 -320)" fill="#fff"/>
    </g>
  </g>
  <g id="Group_24" data-name="Group 24" transform="translate(10.54 7.027)">
    <g id="Group_23" data-name="Group 23" transform="translate(0)">
      <path id="Path_57" data-name="Path 57" d="M48.6,32V42.54h63.242V32Zm59.729,7.026H52.114V35.513h56.214Z" transform="translate(-48.6 -32)" fill="#fff"/>
    </g>
  </g>
  <g id="Group_26" data-name="Group 26" transform="translate(56.354 53.402)">
    <g id="Group_25" data-name="Group 25">
      <path id="Path_58" data-name="Path 58" d="M330.569,274.344,307.217,297.7l-5.785-5.785-2.484,2.484,8.269,8.269,25.836-25.835Z" transform="translate(-298.948 -274.344)" fill="#fff"/>
    </g>
  </g>
  <g id="Group_28" data-name="Group 28" transform="translate(18.838 60.954)">
    <g id="Group_27" data-name="Group 27">
      <rect id="Rectangle_49" data-name="Rectangle 49" width="22.837" height="3.513" fill="#fff"/>
    </g>
  </g>
  <g id="Group_30" data-name="Group 30" transform="translate(28.624 67.371)">
    <g id="Group_29" data-name="Group 29">
      <rect id="Rectangle_50" data-name="Rectangle 50" width="12.297" height="3.513" fill="#fff"/>
    </g>
  </g>
  <g id="Group_32" data-name="Group 32" transform="translate(28.624 73.787)">
    <g id="Group_31" data-name="Group 31">
      <rect id="Rectangle_51" data-name="Rectangle 51" width="12.297" height="3.513" fill="#fff"/>
    </g>
  </g>
  <g id="Group_34" data-name="Group 34" transform="translate(10.541 22.457)">
    <g id="Group_33" data-name="Group 33">
      <rect id="Rectangle_52" data-name="Rectangle 52" width="56.215" height="3.513" fill="#fff"/>
    </g>
  </g>
  <g id="Group_36" data-name="Group 36" transform="translate(10.541 28.873)">
    <g id="Group_35" data-name="Group 35">
      <rect id="Rectangle_53" data-name="Rectangle 53" width="56.215" height="3.513" fill="#fff"/>
    </g>
  </g>
  <g id="Group_38" data-name="Group 38" transform="translate(10.541 35.289)">
    <g id="Group_37" data-name="Group 37">
      <rect id="Rectangle_54" data-name="Rectangle 54" width="56.215" height="3.513" fill="#fff"/>
    </g>
  </g>
  <g id="Group_40" data-name="Group 40" transform="translate(10.541 41.706)">
    <g id="Group_39" data-name="Group 39">
      <rect id="Rectangle_55" data-name="Rectangle 55" width="33.377" height="3.513" fill="#fff"/>
    </g>
  </g>
  <g id="Group_42" data-name="Group 42" transform="translate(10.541 48.122)">
    <g id="Group_41" data-name="Group 41">
      <rect id="Rectangle_56" data-name="Rectangle 56" width="33.377" height="3.513" fill="#fff"/>
    </g>
  </g>
  <g id="Group_44" data-name="Group 44" transform="translate(64.163 22.457)">
    <g id="Group_43" data-name="Group 43">
      <rect id="Rectangle_57" data-name="Rectangle 57" width="3.513" height="3.513" fill="#fff"/>
    </g>
  </g>
  <g id="Group_46" data-name="Group 46" transform="translate(64.163 28.873)">
    <g id="Group_45" data-name="Group 45">
      <rect id="Rectangle_58" data-name="Rectangle 58" width="3.513" height="3.513" fill="#fff"/>
    </g>
  </g>
  <g id="Group_48" data-name="Group 48" transform="translate(64.163 35.289)">
    <g id="Group_47" data-name="Group 47">
      <rect id="Rectangle_59" data-name="Rectangle 59" width="3.513" height="3.513" fill="#fff"/>
    </g>
  </g>
  <g id="Group_50" data-name="Group 50" transform="translate(43.31 41.706)">
    <g id="Group_49" data-name="Group 49">
      <rect id="Rectangle_60" data-name="Rectangle 60" width="3.513" height="3.513" fill="#fff"/>
    </g>
  </g>
  <g id="Group_52" data-name="Group 52" transform="translate(43.31 48.122)">
    <g id="Group_51" data-name="Group 51">
      <rect id="Rectangle_61" data-name="Rectangle 61" width="3.513" height="3.513" fill="#fff"/>
    </g>
  </g>
</svg>
