<?xml version="1.0" encoding="utf-8"?>
<!-- Generator: Adobe Illustrator 21.1.0, SVG Export Plug-In . SVG Version: 6.00 Build 0)  -->
<svg version="1.1" id="Layer_1" xmlns="http://www.w3.org/2000/svg" xmlns:xlink="http://www.w3.org/1999/xlink" x="0px" y="0px"
	 viewBox="0 0 150 133" style="enable-background:new 0 0 150 133;" xml:space="preserve">
<style type="text/css">
	.st0{fill:#243746;stroke:#243746;stroke-width:2;stroke-miterlimit:10;}
	.st1{fill:#B68150;stroke:#B68150;stroke-width:1.5;stroke-miterlimit:10;}
	.st2{fill:#B68150;stroke:#B68150;stroke-miterlimit:10;}
</style>
<path class="st0" d="M147,3.1L147,3.1v5.3v2.5l-5.2-2.5H94.2V3.1h42.3v0H147z M126.5,50.1v7.8l-5.3-2.6v0.1H99.9v45.1h-5.7V50.1
	l21.9,0h9.2H126.5z M51.4,100.4c-7.5,0-14.2-1.3-20.1-3.8c-6-2.5-11.1-5.9-15.4-10.2c-4.3-4.3-7.5-9.4-9.8-15.2
	c-2.3-5.8-3.4-12.1-3.4-18.9C2.6,45.5,3.9,39,6.5,33c2.6-6,6.1-11.2,10.6-15.7c4.4-4.4,9.6-7.9,15.6-10.4c5.9-2.5,12.3-3.8,19-3.8
	h10.9h5.3h5.1v7.8l-5.2-2.5H51.5h0c-5.9,0-11.5,1.1-16.7,3.4c-5.2,2.3-9.8,5.4-13.7,9.4c-4,4-7.1,8.7-9.4,14c-2.3,5.3-3.4,11-3.4,17
	c0,5.9,1,11.5,3,16.7c2,5.2,4.9,9.8,8.7,13.7c3.8,3.9,8.3,7,13.5,9.2c5.3,2.2,11.1,3.4,17.6,3.4l20.9,0V55.3H50v0l-5.2,2.5v-7.8H50
	h5.2h22v50.4L51.4,100.4z"/>
<g>
	<g>
		<path class="st1" d="M11.6,121.3v4.9c-0.5,0.3-1,0.5-1.6,0.7c-0.6,0.2-1.2,0.2-1.8,0.2c-0.9,0-1.8-0.2-2.6-0.5
			c-0.8-0.3-1.4-0.8-1.9-1.3c-0.5-0.6-1-1.2-1.2-2C2.1,122.7,2,121.8,2,121c0-0.9,0.2-1.8,0.5-2.6c0.3-0.8,0.8-1.5,1.4-2.1
			c0.6-0.6,1.2-1,2-1.4c0.8-0.3,1.6-0.5,2.4-0.5c0.6,0,1.2,0.1,1.8,0.2c0.6,0.2,1.1,0.4,1.6,0.7l-0.6,1c-0.4-0.2-0.8-0.4-1.3-0.5
			c-0.5-0.1-1-0.2-1.5-0.2c-0.7,0-1.3,0.1-2,0.4c-0.6,0.3-1.2,0.7-1.6,1.1c-0.5,0.5-0.8,1-1.1,1.7c-0.3,0.7-0.4,1.3-0.4,2.1
			c0,0.7,0.1,1.4,0.4,2c0.2,0.6,0.6,1.2,1,1.6c0.4,0.5,1,0.8,1.6,1.1c0.6,0.3,1.3,0.4,2.1,0.4c0.4,0,0.8,0,1.2-0.1
			c0.4-0.1,0.8-0.2,1.2-0.4v-3.1H7.9v-1H11.6z"/>
		<path class="st1" d="M15.2,127v-12.4h1.2v11.3h6.4v1.1H15.2z"/>
		<path class="st1" d="M35.2,127c-0.2-0.5-0.5-1.2-0.8-2c-0.3-0.8-0.6-1.6-0.9-2.5h-4.6c-0.3,0.9-0.6,1.7-0.9,2.5
			c-0.3,0.8-0.6,1.4-0.8,2H26c0.2-0.4,0.4-1,0.7-1.7c0.3-0.7,0.6-1.4,0.9-2.3c0.3-0.8,0.7-1.7,1-2.6c0.3-0.9,0.7-1.7,1-2.6
			c0.3-0.8,0.6-1.6,0.9-2.3c0.3-0.7,0.5-1.2,0.7-1.7c0.2,0.4,0.4,1,0.7,1.7c0.3,0.7,0.6,1.4,0.9,2.3c0.3,0.8,0.7,1.7,1,2.6
			c0.4,0.9,0.7,1.7,1,2.6c0.3,0.8,0.6,1.6,0.9,2.3c0.3,0.7,0.5,1.2,0.7,1.7H35.2z M31,117.1c-0.2,0.5-0.5,1.2-0.8,2
			c-0.3,0.8-0.6,1.6-1,2.5h3.9c-0.3-0.9-0.7-1.7-1-2.5c-0.3-0.8-0.6-1.5-0.8-2c0,0-0.1-0.1-0.1-0.2c0-0.1-0.1-0.2-0.1-0.3
			c0,0.1-0.1,0.2-0.1,0.3C31.1,116.9,31,117,31,117.1z"/>
		<path class="st1" d="M47.4,115.2l-0.4,1c-0.4-0.2-0.8-0.3-1.3-0.4c-0.5-0.1-0.9-0.2-1.4-0.2c-0.4,0-0.8,0.1-1.1,0.2
			c-0.3,0.1-0.6,0.2-0.8,0.4c-0.2,0.2-0.4,0.4-0.5,0.6c-0.1,0.2-0.2,0.5-0.2,0.8c0,0.3,0.1,0.6,0.3,0.9c0.2,0.2,0.4,0.4,0.7,0.6
			c0.3,0.2,0.6,0.3,1,0.5c0.4,0.1,0.8,0.3,1.1,0.4c0.4,0.2,0.8,0.3,1.1,0.5c0.4,0.2,0.7,0.4,1,0.7c0.3,0.3,0.5,0.6,0.7,1
			c0.2,0.4,0.3,0.8,0.3,1.4c0,0.5-0.1,1-0.3,1.5c-0.2,0.4-0.5,0.8-0.8,1.1c-0.4,0.3-0.8,0.5-1.3,0.7c-0.5,0.2-1.1,0.3-1.8,0.3
			c-0.5,0-0.9,0-1.3-0.1c-0.4-0.1-0.8-0.2-1.1-0.3c-0.3-0.1-0.6-0.2-0.8-0.4c-0.2-0.1-0.4-0.2-0.6-0.3l0.5-1
			c0.2,0.1,0.4,0.3,0.7,0.4c0.3,0.1,0.5,0.2,0.8,0.3c0.3,0.1,0.6,0.2,0.9,0.2c0.3,0.1,0.6,0.1,0.9,0.1c0.3,0,0.6,0,1-0.1
			c0.4-0.1,0.7-0.2,1-0.4c0.3-0.2,0.6-0.5,0.8-0.8c0.2-0.3,0.3-0.7,0.3-1.1c0-0.5-0.2-1-0.5-1.3c-0.3-0.3-0.7-0.6-1.2-0.9
			c-0.5-0.2-1-0.5-1.5-0.6c-0.5-0.2-1-0.4-1.5-0.7c-0.5-0.2-0.8-0.6-1.2-0.9c-0.3-0.4-0.5-0.9-0.5-1.4c0-0.4,0.1-0.8,0.2-1.2
			c0.2-0.4,0.4-0.7,0.7-1c0.3-0.3,0.7-0.5,1.2-0.7c0.5-0.2,1-0.3,1.5-0.3c0.3,0,0.6,0,1,0.1c0.3,0.1,0.6,0.1,0.9,0.2
			c0.3,0.1,0.6,0.2,0.8,0.2C47.1,115.1,47.3,115.2,47.4,115.2z"/>
		<path class="st1" d="M58.5,115.2l-0.4,1c-0.4-0.2-0.8-0.3-1.3-0.4c-0.5-0.1-0.9-0.2-1.4-0.2c-0.4,0-0.8,0.1-1.1,0.2
			c-0.3,0.1-0.6,0.2-0.8,0.4c-0.2,0.2-0.4,0.4-0.5,0.6c-0.1,0.2-0.2,0.5-0.2,0.8c0,0.3,0.1,0.6,0.3,0.9c0.2,0.2,0.4,0.4,0.7,0.6
			c0.3,0.2,0.6,0.3,1,0.5c0.4,0.1,0.8,0.3,1.1,0.4c0.4,0.2,0.8,0.3,1.1,0.5c0.4,0.2,0.7,0.4,1,0.7c0.3,0.3,0.5,0.6,0.7,1
			c0.2,0.4,0.3,0.8,0.3,1.4c0,0.5-0.1,1-0.3,1.5c-0.2,0.4-0.5,0.8-0.8,1.1c-0.4,0.3-0.8,0.5-1.3,0.7c-0.5,0.2-1.1,0.3-1.8,0.3
			c-0.5,0-0.9,0-1.3-0.1c-0.4-0.1-0.8-0.2-1.1-0.3c-0.3-0.1-0.6-0.2-0.8-0.4c-0.2-0.1-0.4-0.2-0.6-0.3l0.5-1
			c0.2,0.1,0.4,0.3,0.7,0.4c0.3,0.1,0.5,0.2,0.8,0.3c0.3,0.1,0.6,0.2,0.9,0.2c0.3,0.1,0.6,0.1,0.9,0.1c0.3,0,0.6,0,1-0.1
			c0.4-0.1,0.7-0.2,1-0.4c0.3-0.2,0.6-0.5,0.8-0.8c0.2-0.3,0.3-0.7,0.3-1.1c0-0.5-0.2-1-0.5-1.3c-0.3-0.3-0.7-0.6-1.2-0.9
			c-0.5-0.2-1-0.5-1.5-0.6c-0.5-0.2-1-0.4-1.5-0.7c-0.5-0.2-0.8-0.6-1.2-0.9c-0.3-0.4-0.5-0.9-0.5-1.4c0-0.4,0.1-0.8,0.2-1.2
			c0.2-0.4,0.4-0.7,0.7-1c0.3-0.3,0.7-0.5,1.2-0.7c0.5-0.2,1-0.3,1.5-0.3c0.3,0,0.6,0,1,0.1c0.3,0.1,0.6,0.1,0.9,0.2
			c0.3,0.1,0.6,0.2,0.8,0.2C58.2,115.1,58.4,115.2,58.5,115.2z"/>
	</g>
	<path class="st1" d="M75.8,127h-1.1c0,0-0.1-0.1-0.3-0.4c-0.2-0.3-0.5-0.6-0.8-1c-0.3,0.5-0.8,0.8-1.4,1.1c-0.6,0.3-1.3,0.4-2,0.4
		c-0.6,0-1.1-0.1-1.6-0.3c-0.5-0.2-0.9-0.4-1.2-0.8c-0.3-0.3-0.6-0.7-0.8-1.1c-0.2-0.4-0.3-0.9-0.3-1.4c0-0.5,0.1-0.9,0.2-1.3
		c0.2-0.4,0.4-0.8,0.7-1.1c0.3-0.3,0.6-0.6,1-0.8c0.4-0.2,0.8-0.4,1.2-0.5c-0.3-0.4-0.5-0.7-0.7-0.9c-0.2-0.3-0.3-0.5-0.4-0.6
		c-0.2-0.3-0.3-0.6-0.4-0.9c-0.1-0.3-0.2-0.6-0.2-1c0-0.4,0.1-0.8,0.2-1.1c0.2-0.3,0.4-0.6,0.6-0.8c0.3-0.2,0.5-0.4,0.9-0.5
		c0.3-0.1,0.7-0.2,1.1-0.2c0.5,0,1,0.1,1.4,0.2c0.4,0.2,0.8,0.3,1,0.5c0,0,0,0.1-0.1,0.1c-0.1,0.1-0.1,0.2-0.2,0.2
		c-0.1,0.1-0.1,0.2-0.2,0.2s-0.1,0.1-0.1,0.1c-0.2-0.1-0.5-0.2-0.7-0.3c-0.2-0.1-0.5-0.2-0.8-0.2c-0.3,0-0.6,0-0.8,0.1
		c-0.3,0.1-0.5,0.2-0.7,0.3c-0.2,0.2-0.4,0.3-0.5,0.6c-0.1,0.2-0.2,0.5-0.2,0.8c0,0.2,0,0.4,0.1,0.5c0,0.2,0.1,0.3,0.1,0.5
		c0.1,0.1,0.1,0.2,0.1,0.3c0,0.1,0.1,0.1,0.1,0.1l4.3,5.8l1.5-3.9h1l-1.8,4.8L75.8,127z M70,120.8c-0.3,0-0.7,0.1-1,0.2
		c-0.3,0.1-0.6,0.3-0.9,0.6c-0.3,0.2-0.5,0.5-0.7,0.9c-0.2,0.3-0.2,0.7-0.2,1.1c0,0.4,0.1,0.8,0.3,1.1c0.2,0.3,0.4,0.6,0.7,0.8
		c0.3,0.2,0.6,0.4,1,0.5c0.4,0.1,0.7,0.2,1.1,0.2c0.3,0,0.6,0,0.9-0.1c0.3-0.1,0.6-0.2,0.8-0.3c0.2-0.1,0.5-0.3,0.7-0.4
		c0.2-0.2,0.4-0.4,0.5-0.5c-0.5-0.6-1-1.3-1.5-2C70.9,122.2,70.4,121.5,70,120.8z"/>
	<path class="st1" d="M83.9,127v-12.4h6.9v1.1H85v4.7h5.1v1.1H85v5.5H83.9z"/>
	<path class="st1" d="M99.1,127.2c-0.6,0-1.2-0.1-1.7-0.3c-0.5-0.2-1-0.5-1.4-0.9c-0.4-0.4-0.7-0.8-0.9-1.4
		c-0.2-0.5-0.3-1.2-0.3-1.8v-8.2H96v8.2c0,0.5,0.1,1,0.2,1.4c0.2,0.4,0.4,0.8,0.7,1c0.3,0.3,0.6,0.5,1,0.7c0.4,0.2,0.8,0.2,1.3,0.2
		c0.4,0,0.9-0.1,1.2-0.2c0.4-0.2,0.7-0.4,1-0.7c0.3-0.3,0.5-0.6,0.7-1c0.2-0.4,0.2-0.9,0.2-1.4v-8.2h1.2v8.2c0,0.7-0.1,1.3-0.3,1.8
		c-0.2,0.5-0.5,1-0.9,1.4c-0.4,0.4-0.8,0.7-1.4,0.9C100.3,127.1,99.7,127.2,99.1,127.2z"/>
	<path class="st1" d="M113.8,115.2l-0.4,1c-0.4-0.2-0.8-0.3-1.3-0.4c-0.5-0.1-0.9-0.2-1.4-0.2c-0.4,0-0.8,0.1-1.1,0.2
		c-0.3,0.1-0.6,0.2-0.8,0.4c-0.2,0.2-0.4,0.4-0.5,0.6c-0.1,0.2-0.2,0.5-0.2,0.8c0,0.3,0.1,0.6,0.3,0.9c0.2,0.2,0.4,0.4,0.7,0.6
		c0.3,0.2,0.6,0.3,1,0.5c0.4,0.1,0.8,0.3,1.1,0.4c0.4,0.2,0.8,0.3,1.1,0.5c0.4,0.2,0.7,0.4,1,0.7c0.3,0.3,0.5,0.6,0.7,1
		c0.2,0.4,0.3,0.8,0.3,1.4c0,0.5-0.1,1-0.3,1.5c-0.2,0.4-0.5,0.8-0.8,1.1c-0.4,0.3-0.8,0.5-1.3,0.7c-0.5,0.2-1.1,0.3-1.8,0.3
		c-0.5,0-0.9,0-1.3-0.1c-0.4-0.1-0.8-0.2-1.1-0.3c-0.3-0.1-0.6-0.2-0.8-0.4c-0.2-0.1-0.4-0.2-0.6-0.3l0.5-1c0.2,0.1,0.4,0.3,0.7,0.4
		c0.3,0.1,0.5,0.2,0.8,0.3c0.3,0.1,0.6,0.2,0.9,0.2c0.3,0.1,0.6,0.1,0.9,0.1c0.3,0,0.6,0,1-0.1c0.4-0.1,0.7-0.2,1-0.4
		c0.3-0.2,0.6-0.5,0.8-0.8c0.2-0.3,0.3-0.7,0.3-1.1c0-0.5-0.2-1-0.5-1.3c-0.3-0.3-0.7-0.6-1.2-0.9c-0.5-0.2-1-0.5-1.5-0.6
		c-0.5-0.2-1-0.4-1.5-0.7c-0.5-0.2-0.8-0.6-1.2-0.9c-0.3-0.4-0.5-0.9-0.5-1.4c0-0.4,0.1-0.8,0.2-1.2c0.2-0.4,0.4-0.7,0.7-1
		c0.3-0.3,0.7-0.5,1.2-0.7c0.5-0.2,1-0.3,1.5-0.3c0.3,0,0.6,0,1,0.1c0.3,0.1,0.6,0.1,0.9,0.2c0.3,0.1,0.6,0.2,0.8,0.2
		C113.5,115.1,113.7,115.2,113.8,115.2z"/>
	<path class="st1" d="M117.6,114.6h1.2V127h-1.2V114.6z"/>
	<path class="st1" d="M122,120.8c0-0.9,0.2-1.7,0.5-2.5c0.3-0.8,0.8-1.4,1.3-2c0.6-0.6,1.2-1,2-1.4c0.8-0.3,1.5-0.5,2.4-0.5
		c0.8,0,1.6,0.2,2.4,0.5c0.8,0.3,1.4,0.8,2,1.4c0.6,0.6,1,1.3,1.3,2c0.3,0.8,0.5,1.6,0.5,2.5s-0.2,1.7-0.5,2.5
		c-0.3,0.8-0.8,1.4-1.3,2c-0.6,0.6-1.2,1-2,1.4c-0.8,0.3-1.6,0.5-2.4,0.5c-0.8,0-1.6-0.2-2.4-0.5c-0.8-0.3-1.4-0.8-2-1.4
		c-0.6-0.6-1-1.2-1.3-2C122.2,122.5,122,121.7,122,120.8z M123.2,120.8c0,0.7,0.1,1.4,0.4,2c0.3,0.6,0.6,1.2,1.1,1.7
		c0.5,0.5,1,0.8,1.6,1.1c0.6,0.3,1.3,0.4,1.9,0.4c0.7,0,1.3-0.1,2-0.4c0.6-0.3,1.2-0.6,1.6-1.1c0.5-0.5,0.8-1,1.1-1.7
		c0.3-0.6,0.4-1.3,0.4-2c0-0.7-0.1-1.4-0.4-2c-0.3-0.6-0.6-1.2-1.1-1.7c-0.5-0.5-1-0.9-1.6-1.1c-0.6-0.3-1.3-0.4-2-0.4
		c-0.7,0-1.4,0.1-2,0.4c-0.6,0.3-1.1,0.6-1.6,1.1c-0.5,0.5-0.8,1-1.1,1.7C123.3,119.4,123.2,120.1,123.2,120.8z"/>
	<path class="st1" d="M148,114.6v13c-0.3-0.4-0.7-0.9-1.2-1.5c-0.5-0.6-1-1.2-1.6-1.8c-0.6-0.6-1.1-1.3-1.7-2
		c-0.6-0.7-1.2-1.3-1.7-2c-0.6-0.6-1.1-1.2-1.5-1.8c-0.5-0.6-0.8-1-1.1-1.4c0,0-0.1-0.1-0.2-0.2c-0.1-0.1-0.1-0.2-0.2-0.3l0.1,0.6
		v9.7h-1.2v-13c0.3,0.4,0.7,0.9,1.2,1.5c0.5,0.6,1,1.2,1.5,1.8c0.6,0.6,1.1,1.3,1.7,1.9c0.6,0.7,1.2,1.3,1.7,1.9
		c0.5,0.6,1.1,1.2,1.5,1.8c0.5,0.6,0.9,1,1.2,1.4c0,0.1,0.1,0.1,0.1,0.2c0.1,0.1,0.1,0.2,0.2,0.3l-0.1-0.6v-9.6H148z"/>
</g>
<path class="st2" d="M105.3,38.8l4.5-11.7h-5l-2.7,7.3l-8.3-10.7c-0.2-0.3-0.3-0.5-0.4-0.7c-0.1-0.2-0.2-0.5-0.2-0.8
	C93,21.9,93,21.6,93,21.3c0-0.4,0.1-0.8,0.2-1.1c0.2-0.3,0.4-0.6,0.7-0.8c0.3-0.2,0.6-0.4,1-0.6c0.4-0.1,0.8-0.2,1.3-0.2
	c0.5,0,1.1,0.1,1.6,0.3c0.6,0.2,1.1,0.4,1.6,0.7l1.1,0.7l0.9-0.9c0.1-0.1,0.2-0.3,0.5-0.7c0.3-0.4,0.4-0.6,0.5-0.7l0.7-1.3l-1.2-0.8
	c-0.7-0.5-1.6-0.9-2.6-1.3c-1.1-0.4-2.2-0.6-3.4-0.6c-1,0-2,0.2-2.9,0.5c-0.9,0.3-1.7,0.8-2.4,1.5c-0.7,0.6-1.3,1.4-1.7,2.3
	c-0.4,0.9-0.6,1.9-0.6,3c0,1,0.2,1.9,0.5,2.7c0.3,0.6,0.6,1.3,0.9,1.9c0.1,0.2,0.3,0.6,1,1.5c0.1,0.1,0.2,0.3,0.3,0.5
	c-0.2,0.1-0.4,0.2-0.7,0.3c-1,0.5-2,1.2-2.8,2c-0.8,0.8-1.5,1.7-1.9,2.8c-0.5,1.1-0.7,2.2-0.7,3.5c0,1.3,0.3,2.5,0.8,3.6
	c0.5,1.1,1.2,2.1,2.2,2.9c0.9,0.8,2,1.4,3.2,1.9c1.2,0.5,2.6,0.7,4,0.7c1.9,0,3.7-0.4,5.2-1.1c0.9-0.4,1.6-0.9,2.3-1.4
	c0.2,0.3,0.4,0.5,0.6,0.8c0.3,0.3,0.5,0.6,0.7,0.9l0.5,0.6h5.8L105.3,38.8z M99.7,39.2c-0.4,0.3-0.8,0.6-1.3,0.8
	c-0.5,0.2-1,0.4-1.6,0.6c-0.5,0.1-1.1,0.2-1.7,0.2c-0.8,0-1.5-0.1-2.2-0.3c-0.7-0.2-1.2-0.5-1.7-0.9c-0.5-0.4-0.8-0.8-1.1-1.4
	c-0.3-0.5-0.4-1.1-0.4-1.7c0-0.7,0.1-1.2,0.4-1.8c0.3-0.6,0.7-1,1.2-1.5c0.5-0.4,1.1-0.8,1.7-1c0.4-0.1,0.7-0.2,1.1-0.3
	c0.9,1.2,2,2.5,3,3.9C98,37,98.9,38.1,99.7,39.2C99.7,39.2,99.7,39.2,99.7,39.2z"/>
</svg>
